<svg id="svg" xmlns="http://www.w3.org/2000/svg" xmlns:xlink="http://www.w3.org/1999/xlink" width="400" height="280" viewBox="0, 0, 400,280"><g id="svgg"><path id="path0" d="M191.603 8.151 C 190.359 13.244,191.582 55.415,193.000 56.309 C 196.963 58.808,197.200 57.385,197.200 31.113 L 197.200 6.800 194.627 6.551 C 192.501 6.346,191.977 6.623,191.603 8.151 M134.594 18.526 C 133.050 20.070,133.093 20.206,142.105 42.120 C 151.376 64.660,151.705 65.248,154.644 64.511 C 158.113 63.640,157.717 62.041,148.529 39.809 C 139.051 16.875,137.941 15.179,134.594 18.526 M250.622 18.235 C 249.123 19.205,231.921 61.263,232.455 62.654 C 233.498 65.373,236.857 65.080,238.174 62.156 C 245.831 45.154,255.344 20.407,254.647 19.301 C 253.692 17.783,252.009 17.337,250.622 18.235 M85.760 51.360 C 85.232 51.888,84.800 52.889,84.800 53.585 C 84.800 54.817,117.483 88.000,118.696 88.000 C 125.948 88.000,123.607 83.992,106.193 66.593 C 90.186 50.600,88.086 49.034,85.760 51.360 M282.975 67.044 C 266.153 83.935,265.660 84.540,267.360 86.240 C 269.702 88.582,271.788 87.026,287.807 70.993 C 303.598 55.188,305.027 53.347,303.040 51.360 C 301.027 49.347,299.090 50.862,282.975 67.044 M53.501 99.919 C 49.697 103.000,51.588 104.248,74.341 113.666 C 96.829 122.975,97.875 123.275,99.200 120.800 C 101.107 117.237,101.600 117.491,57.867 99.478 C 55.635 98.558,55.117 98.611,53.501 99.919 M311.780 107.896 C 289.555 117.191,289.175 117.401,289.974 119.919 C 290.851 122.682,293.373 122.024,312.999 113.908 C 336.877 104.035,336.156 104.418,335.849 101.754 C 335.448 98.286,333.677 98.738,311.780 107.896 M63.200 155.602 C 51.286 159.535,45.455 168.592,48.002 179.208 C 50.008 187.569,56.384 191.960,72.400 196.011 C 89.459 200.325,95.643 204.692,96.590 213.090 C 98.717 231.961,69.910 240.512,53.603 225.851 C 47.537 220.397,44.303 221.695,49.818 227.370 C 66.768 244.810,100.341 236.723,100.341 215.200 C 100.341 203.462,93.548 197.565,74.690 192.933 C 54.366 187.941,47.296 180.247,52.305 168.574 C 57.962 155.389,83.165 153.672,93.616 165.759 C 95.517 167.956,98.400 168.293,98.400 166.317 C 98.400 158.671,75.249 151.624,63.200 155.602 M131.516 156.060 C 124.732 158.404,119.369 162.671,116.640 167.895 L 114.400 172.183 114.400 194.772 C 114.400 209.752,114.711 218.277,115.324 220.081 C 122.367 240.804,161.526 242.674,172.270 222.800 C 174.296 219.053,175.379 177.808,173.624 171.288 C 170.078 158.120,148.324 150.253,131.516 156.060 M192.993 195.400 C 193.197 234.998,193.224 235.600,194.800 235.600 C 196.375 235.600,196.403 234.994,196.618 197.200 L 196.836 158.800 211.128 190.800 C 229.677 232.334,225.826 232.232,243.680 191.661 C 251.217 174.535,257.771 159.955,258.245 159.261 C 258.865 158.352,259.119 168.891,259.153 197.000 C 259.199 235.451,259.223 236.000,260.800 236.000 C 262.379 236.000,262.400 235.467,262.400 195.554 L 262.400 155.108 259.026 155.354 L 255.652 155.600 242.293 186.000 C 234.946 202.720,228.616 216.906,228.227 217.525 C 227.573 218.566,220.880 204.129,203.510 164.215 L 199.600 155.229 196.193 155.215 L 192.785 155.200 192.993 195.400 M305.611 156.950 C 303.957 160.773,276.800 234.721,276.800 235.401 C 276.800 235.792,277.610 235.996,278.600 235.856 C 280.150 235.635,281.122 233.628,285.600 221.396 L 290.800 207.191 308.771 207.396 L 326.741 207.600 331.971 221.600 C 336.455 233.607,337.456 235.636,339.000 235.856 C 341.451 236.204,342.420 239.259,326.111 195.200 L 311.454 155.600 308.933 155.350 C 306.931 155.151,306.246 155.481,305.611 156.950 M154.032 158.827 C 160.747 160.556,165.512 163.721,168.379 168.358 L 170.800 172.275 170.800 195.137 C 170.800 217.016,170.726 218.138,169.078 221.200 C 159.570 238.867,122.544 236.180,118.413 217.523 C 116.570 209.199,117.617 173.117,119.822 168.989 C 124.690 159.876,140.202 155.267,154.032 158.827 M317.001 181.128 C 321.290 192.749,324.800 202.649,324.800 203.128 C 324.800 203.728,319.809 204.000,308.800 204.000 C 296.603 204.000,292.800 203.764,292.800 203.008 C 292.800 201.572,308.222 160.000,308.754 160.000 C 309.001 160.000,312.712 169.508,317.001 181.128 M89.741 248.534 C 90.131 250.541,92.000 250.816,92.000 248.867 C 92.000 247.884,91.483 247.200,90.741 247.200 C 89.996 247.200,89.588 247.744,89.741 248.534 M136.000 258.000 C 136.000 267.067,136.193 268.800,137.200 268.800 C 138.207 268.800,138.400 267.067,138.400 258.000 C 138.400 248.933,138.207 247.200,137.200 247.200 C 136.193 247.200,136.000 248.933,136.000 258.000 M75.810 249.213 C 70.678 252.090,72.286 256.653,79.388 259.365 C 83.624 260.982,84.400 261.578,84.400 263.209 C 84.400 267.602,76.135 268.208,74.773 263.914 C 74.147 261.941,72.800 261.960,72.800 263.942 C 72.800 266.270,76.550 268.800,80.000 268.800 C 88.884 268.800,89.578 259.964,80.878 257.621 C 75.948 256.294,73.919 253.601,76.160 251.360 C 78.298 249.222,84.800 250.951,84.800 253.657 C 84.800 254.066,85.340 254.400,86.000 254.400 C 87.690 254.400,87.493 253.226,85.400 250.818 C 83.158 248.238,78.839 247.515,75.810 249.213 M165.410 249.213 C 160.326 252.063,161.900 256.748,168.784 259.258 C 174.415 261.312,175.687 263.423,172.732 265.816 C 169.901 268.108,164.000 266.499,164.000 263.435 C 164.000 262.793,163.613 262.396,163.140 262.553 C 162.667 262.711,162.307 263.101,162.340 263.420 C 162.373 263.739,162.400 264.531,162.400 265.179 C 162.400 268.725,171.708 269.965,174.836 266.836 C 177.842 263.830,175.134 257.600,170.822 257.600 C 168.533 257.600,164.800 255.207,164.800 253.739 C 164.800 249.973,170.816 249.042,173.457 252.400 C 175.330 254.781,176.000 254.919,176.000 252.924 C 176.000 249.271,169.420 246.965,165.410 249.213 M244.175 258.535 C 244.413 268.813,246.400 274.113,246.400 264.467 L 246.400 260.000 251.558 260.000 L 256.716 260.000 256.958 264.137 C 257.496 273.334,259.200 269.327,259.200 258.867 C 259.200 250.452,259.003 248.800,258.000 248.800 C 257.079 248.800,256.800 249.822,256.800 253.200 L 256.800 257.600 251.600 257.600 L 246.400 257.600 246.400 253.200 C 246.400 249.783,246.126 248.800,245.175 248.800 C 244.131 248.800,243.984 250.230,244.175 258.535 M229.333 250.133 C 229.040 250.427,228.800 251.327,228.800 252.133 C 228.800 252.940,228.260 253.600,227.600 253.600 C 226.940 253.600,226.400 253.960,226.400 254.400 C 226.400 254.840,226.940 255.200,227.600 255.200 C 228.545 255.200,228.800 256.317,228.800 260.453 C 228.800 266.963,229.687 268.800,232.828 268.800 C 235.716 268.800,235.954 267.563,233.200 266.871 C 230.414 266.172,230.038 255.200,232.800 255.200 C 233.680 255.200,234.400 254.840,234.400 254.400 C 234.400 253.960,233.680 253.600,232.800 253.600 C 231.627 253.600,231.200 253.067,231.200 251.600 C 231.200 249.658,230.421 249.046,229.333 250.133 M89.770 260.935 C 90.103 271.555,92.000 271.837,92.000 261.267 C 92.000 254.902,91.791 253.600,90.770 253.600 C 89.736 253.600,89.577 254.769,89.770 260.935 M96.000 261.305 C 96.000 267.434,96.219 268.800,97.200 268.800 C 98.158 268.800,98.400 267.611,98.400 262.898 C 98.400 256.369,99.386 254.672,102.694 255.502 C 104.953 256.069,105.574 257.935,105.589 264.200 C 105.595 266.730,105.960 268.800,106.400 268.800 C 106.848 268.800,107.200 266.593,107.200 263.778 C 107.200 258.376,108.639 255.200,111.085 255.200 C 113.650 255.200,114.400 256.957,114.400 262.960 C 114.400 267.618,114.643 268.800,115.600 268.800 C 117.335 268.800,117.298 257.867,115.555 255.378 C 114.064 253.250,109.547 252.937,107.958 254.851 C 107.017 255.984,106.855 255.984,106.219 254.848 C 105.692 253.907,104.328 253.621,100.759 253.702 L 96.000 253.809 96.000 261.305 M120.176 263.735 C 120.336 270.966,120.686 273.964,121.400 274.201 C 122.107 274.436,122.400 273.412,122.400 270.707 C 122.400 267.730,122.613 267.093,123.360 267.840 C 124.919 269.399,129.182 268.988,130.876 267.116 C 136.098 261.346,128.787 249.133,123.360 254.560 C 122.613 255.307,122.400 255.307,122.400 254.560 C 122.400 254.032,121.849 253.600,121.176 253.600 C 120.130 253.600,119.985 255.074,120.176 263.735 M143.860 254.430 C 140.453 256.419,140.191 263.563,143.399 267.000 C 145.394 269.138,150.441 269.478,152.016 267.581 C 153.419 265.890,152.625 265.402,150.059 266.378 C 147.097 267.504,146.636 267.436,144.800 265.600 C 141.787 262.587,142.675 261.600,148.400 261.600 C 153.122 261.600,153.600 261.448,153.600 259.947 C 153.600 254.840,148.301 251.839,143.860 254.430 M179.200 261.305 C 179.200 267.434,179.419 268.800,180.400 268.800 C 181.358 268.800,181.600 267.611,181.600 262.898 C 181.600 256.369,182.586 254.672,185.894 255.502 C 188.153 256.069,188.774 257.935,188.789 264.200 C 188.795 266.730,189.160 268.800,189.600 268.800 C 190.048 268.800,190.400 266.593,190.400 263.778 C 190.400 258.376,191.839 255.200,194.285 255.200 C 196.850 255.200,197.600 256.957,197.600 262.960 C 197.600 267.618,197.843 268.800,198.800 268.800 C 200.535 268.800,200.498 257.867,198.755 255.378 C 197.264 253.250,192.747 252.937,191.158 254.851 C 190.217 255.984,190.055 255.984,189.419 254.848 C 188.892 253.907,187.528 253.621,183.959 253.702 L 179.200 253.809 179.200 261.305 M204.383 255.219 C 203.406 256.298,203.184 257.104,203.718 257.638 C 204.251 258.171,205.006 257.898,205.983 256.819 C 207.867 254.737,210.895 254.736,212.009 256.817 C 213.236 259.110,212.361 260.000,208.877 260.000 C 204.211 260.000,201.247 264.927,204.160 267.840 C 205.418 269.098,209.791 269.073,211.140 267.800 C 211.988 267.000,212.273 267.000,212.567 267.800 C 212.768 268.350,213.384 268.800,213.934 268.800 C 215.507 268.800,214.628 255.907,212.966 254.600 C 210.943 253.009,206.064 253.361,204.383 255.219 M218.400 261.301 C 218.400 267.433,218.619 268.800,219.600 268.800 C 220.561 268.800,220.800 267.592,220.800 262.731 C 220.800 256.721,220.824 256.652,223.200 255.755 C 226.641 254.456,226.161 253.647,222.000 253.731 L 218.400 253.803 218.400 261.301 M265.010 254.823 C 261.762 257.098,261.656 264.056,264.820 267.220 C 268.194 270.594,274.437 268.519,275.668 263.615 C 277.024 258.212,274.045 253.600,269.200 253.600 C 267.856 253.600,265.970 254.150,265.010 254.823 M278.400 261.341 C 278.400 267.438,278.619 268.800,279.600 268.800 C 280.551 268.800,280.800 267.651,280.800 263.257 C 280.800 257.368,281.884 255.200,284.829 255.200 C 287.073 255.200,288.000 257.660,288.000 263.614 C 288.000 271.194,289.915 270.330,290.234 262.606 C 290.665 252.144,296.570 251.738,296.966 262.143 C 297.301 270.916,299.200 271.297,299.200 262.591 C 299.200 254.637,294.700 250.420,290.594 254.526 C 289.904 255.216,289.390 255.221,288.578 254.548 C 287.979 254.051,285.444 253.697,282.944 253.763 L 278.400 253.883 278.400 261.341 M304.058 255.708 C 301.638 258.784,301.789 264.261,304.364 266.836 C 307.076 269.549,313.600 269.462,313.600 266.714 C 313.600 265.365,313.420 265.352,310.870 266.513 C 308.477 267.604,305.287 265.949,304.582 263.252 C 304.178 261.710,304.490 261.600,309.275 261.600 C 314.345 261.600,314.400 261.576,314.400 259.378 C 314.400 253.668,307.569 251.244,304.058 255.708 M129.155 256.978 C 130.904 259.475,130.731 263.669,128.800 265.600 C 125.811 268.589,122.400 266.361,122.400 261.418 C 122.400 255.904,126.510 253.202,129.155 256.978 M149.943 256.457 C 152.042 258.556,151.388 259.200,147.153 259.200 C 143.058 259.200,142.888 258.960,145.023 256.200 C 146.087 254.824,148.432 254.947,149.943 256.457 M272.355 256.978 C 274.927 260.650,272.905 267.200,269.200 267.200 C 268.540 267.200,267.280 266.480,266.400 265.600 C 263.223 262.423,265.167 255.200,269.200 255.200 C 270.266 255.200,271.659 255.985,272.355 256.978 M311.040 256.160 C 313.016 258.136,312.092 259.200,308.400 259.200 C 304.592 259.200,304.003 258.511,306.057 256.457 C 307.554 254.960,309.711 254.831,311.040 256.160 M212.800 262.335 C 212.800 266.360,206.645 268.678,205.296 265.161 C 204.625 263.412,207.047 261.600,210.057 261.600 C 211.566 261.600,212.800 261.931,212.800 262.335 " stroke="none" fill="#000000" fill-rule="evenodd"></path></g></svg>